<?xml version="1.0" encoding="UTF-8" standalone="no"?>
<svg
   xmlns:dc="http://purl.org/dc/elements/1.1/"
   xmlns:cc="http://creativecommons.org/ns#"
   xmlns:rdf="http://www.w3.org/1999/02/22-rdf-syntax-ns#"
   xmlns:svg="http://www.w3.org/2000/svg"
   xmlns="http://www.w3.org/2000/svg"
   xmlns:sodipodi="http://sodipodi.sourceforge.net/DTD/sodipodi-0.dtd"
   xmlns:inkscape="http://www.inkscape.org/namespaces/inkscape"
   fill-opacity="1"
   color-rendering="auto"
   color-interpolation="auto"
   text-rendering="auto"
   stroke="black"
   stroke-linecap="square"
   stroke-miterlimit="10"
   shape-rendering="auto"
   stroke-opacity="1"
   fill="black"
   stroke-dasharray="none"
   font-weight="normal"
   stroke-width="1"
   font-family="'Dialog'"
   font-style="normal"
   stroke-linejoin="miter"
   font-size="12"
   stroke-dashoffset="0"
   image-rendering="auto"
   version="1.1"
   id="svg4664"
   sodipodi:docname="checkmark.svg"
   inkscape:version="0.92.1 r15371">
  <metadata
     id="metadata4668">
    <rdf:RDF>
      <cc:Work
         rdf:about="">
        <dc:format>image/svg+xml</dc:format>
        <dc:type
           rdf:resource="http://purl.org/dc/dcmitype/StillImage" />
        <dc:title></dc:title>
      </cc:Work>
    </rdf:RDF>
  </metadata>
  <sodipodi:namedview
     pagecolor="#ffffff"
     bordercolor="#666666"
     borderopacity="1"
     objecttolerance="10"
     gridtolerance="10"
     guidetolerance="10"
     inkscape:pageopacity="0"
     inkscape:pageshadow="2"
     inkscape:window-width="940"
     inkscape:window-height="1032"
     id="namedview4666"
     showgrid="false"
     inkscape:zoom="2.36"
     inkscape:cx="-33.050847"
     inkscape:cy="-17.79661"
     inkscape:window-x="0"
     inkscape:window-y="28"
     inkscape:window-maximized="0"
     inkscape:current-layer="svg4664" />
  <!--Unicode Character 'CHECK MARK' (U+2713)-->
  <defs
     id="genericDefs" />
  <g
     id="g4662"
     transform="matrix(0.44417032,0,0,0.43888222,2.8920376,-75.544596)"
     style="fill:#aeffae;fill-opacity:1"
     inkscape:export-filename="/home/andornaut/workspace/cya/static/checkmark.png"
     inkscape:export-xdpi="63.950001"
     inkscape:export-ydpi="63.950001">
    <g
       id="g4660"
       style="fill:#aeffae;fill-opacity:1">
      <path
         d="m 67.3594,347.3438 q 12.9375,-29.5313 27.7734,-56.461 14.836,-26.9297 30.586,-49.7109 18.5624,-26.7188 29.25,-38.5313 6.8906,-7.5937 12.9374,-12.5156 3.5157,-2.8125 11.1094,-4.2188 18.4219,-3.375 25.7344,-3.375 3.2344,0 3.2344,2.25 0,2.1094 -3.2344,5.0626 -28.125,25.0312 -58.9922,71.5781 -30.8672,46.5469 -52.1016,98.8593 -8.0156,19.5469 -11.1796,23.9766 -3.1641,4.4297 -19.7578,4.4297 -10.8282,0 -13.5704,-2.1094 -2.7422,-2.1093 -9.914,-13.3593 -12.375,-18.7032 -26.5782,-33.75 -7.4531,-7.875 -7.4531,-12.0938 0,-5.9062 8.2969,-11.6016 8.2969,-5.6953 13.6406,-5.6953 7.4532,0 17.9297,8.3672 10.4766,8.3672 22.2891,28.8985 z"
         id="path4658"
         inkscape:connector-curvature="0"
         style="stroke:none;fill:#aeffae;fill-opacity:1" />
    </g>
  </g>
</svg>
